<?xml version="1.0" encoding="UTF-8"?>
<svg version="1.1" xmlns="http://www.w3.org/2000/svg" width="126" height="137">
<path d="M0 0 C41.58 0 83.16 0 126 0 C126 45.21 126 90.42 126 137 C84.42 137 42.84 137 0 137 C0 91.79 0 46.58 0 0 Z " fill="#111111" transform="translate(0,0)"/>
<path d="M0 0 C9.16022303 6.91440312 13.84248965 15.05516203 15.51171875 26.4140625 C16.05128807 36.23422413 12.41284891 46.01318208 6.0234375 53.37109375 C-1.02736931 60.54217018 -10.36688092 64.27606207 -20.49609375 64.671875 C-30.05591883 64.13009332 -39.08760907 60.39859623 -45.59765625 53.27734375 C-52.26831408 44.68435349 -55.98423729 35.17690337 -54.80859375 24.234375 C-53.54792936 18.15189938 -51.65377368 13.17817777 -47.80859375 8.234375 C-47.23044922 7.38939453 -47.23044922 7.38939453 -46.640625 6.52734375 C-41.96541131 0.23431418 -34.77102274 -3.52876581 -27.22265625 -5.41015625 C-17.40850247 -6.85528245 -8.48468876 -5.33390726 0 0 Z " fill="#FAFAFA" transform="translate(82.80859375,38.765625)"/>
<path d="M0 0 C0 1.98 0 3.96 0 6 C-1.65 6.33 -3.3 6.66 -5 7 C-5.33 8.98 -5.66 10.96 -6 13 C-4.02 13 -2.04 13 0 13 C0 15.31 0 17.62 0 20 C-1.98 20 -3.96 20 -6 20 C-6 25.28 -6 30.56 -6 36 C-8.31 36 -10.62 36 -13 36 C-13 30.72 -13 25.44 -13 20 C-14.98 20 -16.96 20 -19 20 C-19 17.69 -19 15.38 -19 13 C-17.02 13 -15.04 13 -13 13 C-13.04640625 12.39671875 -13.0928125 11.7934375 -13.140625 11.171875 C-13.42990654 4.76635514 -13.42990654 4.76635514 -11.5625 1.4375 C-7.7722199 -0.68875469 -4.25016698 -0.32693592 0 0 Z " fill="#1A1A1A" transform="translate(72,50)"/>
<path d="M0 0 C1.65 0 3.3 0 5 0 C5 2.31 5 4.62 5 7 C3.02 7 1.04 7 -1 7 C-1 6.01 -1 5.02 -1 4 C-1.66 3.67 -2.32 3.34 -3 3 C-2.34 3 -1.68 3 -1 3 C-0.67 2.01 -0.34 1.02 0 0 Z " fill="#232323" transform="translate(67,63)"/>
<path d="M0 0 C2 0 4 0 6 0 C6 1.65 6 3.3 6 5 C4.02 5 2.04 5 0 5 C0 3.35 0 1.7 0 0 Z " fill="#121212" transform="translate(59,81)"/>
<path d="M0 0 C2.09103899 4.18207798 3.11636319 7.43454313 4 12 C3.34 12.66 2.68 13.32 2 14 C2 13.01 2 12.02 2 11 C1.34 11 0.68 11 0 11 C0 7.37 0 3.74 0 0 Z " fill="#333333" transform="translate(28,72)"/>
</svg>
