<?xml version="1.0" encoding="UTF-8"?>
<svg id="Icons" xmlns="http://www.w3.org/2000/svg" version="1.1" viewBox="0 0 500 500">
  <!-- Generator: Adobe Illustrator 29.0.0, SVG Export Plug-In . SVG Version: 2.1.0 Build 186)  -->
  <g id="instagram_white">
    <g id="instagram">
      <path id="Shape" d="M246.895,164.349c-20.192,0-22.713.093-30.641.446-7.916.372-13.304,1.617-18.042,3.456-4.887,1.895-9.037,4.441-13.168,8.572-4.131,4.131-6.683,8.275-8.572,13.168-1.84,4.738-3.091,10.127-3.456,18.042-.372,7.928-.446,10.449-.446,30.641s.093,22.713.446,30.641c.372,7.909,1.617,13.304,3.456,18.042,1.895,4.881,4.441,9.037,8.572,13.168,4.131,4.125,8.275,6.683,13.168,8.572,4.744,1.833,10.133,3.091,18.042,3.456,7.928.372,10.449.446,30.641.446s22.713-.093,30.641-.446c7.909-.372,13.304-1.623,18.042-3.456,4.881-1.895,9.037-4.447,13.168-8.572,4.125-4.131,6.683-8.269,8.572-13.168,1.833-4.738,3.091-10.133,3.456-18.042.372-7.928.446-10.449.446-30.641s-.093-22.713-.446-30.641c-.372-7.909-1.623-13.31-3.456-18.042-1.895-4.887-4.447-9.037-8.572-13.168-4.131-4.131-8.269-6.683-13.168-8.572-4.738-1.84-10.133-3.091-18.042-3.456-7.928-.372-10.449-.446-30.641-.446ZM246.895,177.728c19.839,0,22.205.099,30.04.44,7.247.341,11.18,1.542,13.794,2.57,3.481,1.344,5.946,2.954,8.56,5.55,2.595,2.601,4.206,5.073,5.55,8.554,1.016,2.614,2.23,6.547,2.558,13.794.353,7.841.434,10.195.434,30.04s-.093,22.205-.458,30.04c-.378,7.247-1.586,11.18-2.608,13.794-1.387,3.481-2.967,5.946-5.568,8.56-2.595,2.595-5.104,4.206-8.547,5.55-2.601,1.016-6.596,2.23-13.843,2.558-7.891.353-10.214.434-30.096.434s-22.211-.093-30.096-.458c-7.253-.378-11.248-1.586-13.849-2.608-3.524-1.387-5.946-2.967-8.541-5.568-2.608-2.595-4.274-5.104-5.574-8.547-1.022-2.601-2.224-6.596-2.601-13.843-.279-7.804-.378-10.214-.378-30.003s.099-22.211.378-30.108c.378-7.247,1.579-11.236,2.601-13.837,1.301-3.53,2.967-5.946,5.574-8.554,2.595-2.595,5.017-4.268,8.541-5.562,2.601-1.028,6.51-2.236,13.756-2.608,7.897-.279,10.22-.372,30.096-.372l.279.186h0ZM246.895,200.508c-21.09,0-38.166,17.095-38.166,38.166s17.095,38.166,38.166,38.166,38.166-17.095,38.166-38.166-17.095-38.166-38.166-38.166ZM246.895,263.45c-13.688,0-24.775-11.087-24.775-24.775s11.087-24.775,24.775-24.775,24.775,11.087,24.775,24.775-11.087,24.775-24.775,24.775ZM295.491,199.003c0,4.924-4.001,8.919-8.919,8.919s-8.919-4.001-8.919-8.919,4.001-8.913,8.919-8.913c4.912-.006,8.919,3.995,8.919,8.913Z"/>
    </g>
  </g>
  <text transform="translate(192.626 473.604)" font-family="AvertaPE-Light, &apos;Averta PE&apos;" font-size="25" font-weight="300"><tspan x="0" y="0">Instagram</tspan></text>
</svg>