<?xml version="1.0" encoding="UTF-8"?>
<svg version="1.1" xmlns="http://www.w3.org/2000/svg" width="32" height="32">
<path d="M0 0 C10.56 0 21.12 0 32 0 C32 10.56 32 21.12 32 32 C21.44 32 10.88 32 0 32 C0 21.44 0 10.88 0 0 Z " fill="#040404" transform="translate(0,0)"/>
<path d="M0 0 C1.21429688 0.00128906 2.42859375 0.00257813 3.6796875 0.00390625 C7.42859061 0.47570698 9.35280811 0.85254809 12.125 3.4375 C12.56555465 6.17325195 12.69418771 8.22628248 12.5625 10.9375 C12.55669922 11.61425781 12.55089844 12.29101562 12.54492188 12.98828125 C12.45481294 16.6430995 12.19589246 18.33116132 10.125 21.4375 C6.93343552 22.50135483 4.54002524 22.60427982 1.1875 22.625 C-0.37291016 22.64626953 -0.37291016 22.64626953 -1.96484375 22.66796875 C-4.8540201 22.4391615 -6.47636274 22.02360585 -8.875 20.4375 C-10.34461466 17.49827067 -10.08419862 14.83341028 -10.125 11.5625 C-10.15078125 10.32757813 -10.1765625 9.09265625 -10.203125 7.8203125 C-9.51880843 0.76533453 -6.73520256 -0.10679497 0 0 Z " fill="#151515" transform="translate(14.875,4.5625)"/>
<path d="M0 0 C1.21429688 0.00128906 2.42859375 0.00257813 3.6796875 0.00390625 C7.42859061 0.47570698 9.35280811 0.85254809 12.125 3.4375 C12.56555465 6.17325195 12.69418771 8.22628248 12.5625 10.9375 C12.55669922 11.61425781 12.55089844 12.29101562 12.54492188 12.98828125 C12.45481294 16.6430995 12.19589246 18.33116132 10.125 21.4375 C6.93343552 22.50135483 4.54002524 22.60427982 1.1875 22.625 C-0.37291016 22.64626953 -0.37291016 22.64626953 -1.96484375 22.66796875 C-4.8540201 22.4391615 -6.47636274 22.02360585 -8.875 20.4375 C-10.34461466 17.49827067 -10.08419862 14.83341028 -10.125 11.5625 C-10.15078125 10.32757813 -10.1765625 9.09265625 -10.203125 7.8203125 C-9.51880843 0.76533453 -6.73520256 -0.10679497 0 0 Z M-7.875 4.4375 C-8.19557871 7.72514015 -8.19557871 7.72514015 -8.125 11.4375 C-8.13015625 12.695625 -8.1353125 13.95375 -8.140625 15.25 C-8.21280455 18.53032361 -8.21280455 18.53032361 -5.875 20.4375 C-2.58735985 20.75807871 -2.58735985 20.75807871 1.125 20.6875 C3.0121875 20.69523437 3.0121875 20.69523437 4.9375 20.703125 C8.21782361 20.77530455 8.21782361 20.77530455 10.125 18.4375 C10.44557871 15.14985985 10.44557871 15.14985985 10.375 11.4375 C10.38015625 10.179375 10.3853125 8.92125 10.390625 7.625 C10.46280455 4.34467639 10.46280455 4.34467639 8.125 2.4375 C4.83735985 2.11692129 4.83735985 2.11692129 1.125 2.1875 C-0.7621875 2.17976562 -0.7621875 2.17976562 -2.6875 2.171875 C-5.96782361 2.09969545 -5.96782361 2.09969545 -7.875 4.4375 Z " fill="#F4F4F4" transform="translate(14.875,4.5625)"/>
<path d="M0 0 C0.66 0 1.32 0 2 0 C2 0.99 2 1.98 2 3 C1.34 3 0.68 3 0 3 C0.04125 4.11375 0.0825 5.2275 0.125 6.375 C0 10 0 10 -2 12 C-5.1642235 12.33661952 -7.18513382 12.49943411 -9.9375 10.8125 C-11 9 -11 9 -10.875 6.5 C-9.46835443 2.48101266 -9.46835443 2.48101266 -7 1 C-3.3125 1.3125 -3.3125 1.3125 0 2 C0 1.34 0 0.68 0 0 Z " fill="#D2D2D2" transform="translate(21,9)"/>
<path d="M0 0 C0.99773438 0.02320313 1.99546875 0.04640625 3.0234375 0.0703125 C4.52777344 0.09738281 4.52777344 0.09738281 6.0625 0.125 C6.83335938 0.14820313 7.60421875 0.17140625 8.3984375 0.1953125 C8.3984375 1.5153125 8.3984375 2.8353125 8.3984375 4.1953125 C7.00625 4.1025 7.00625 4.1025 5.5859375 4.0078125 C2.47407555 3.93946207 2.47407555 3.93946207 0.4609375 5.3828125 C-0.8532206 7.20133363 -0.8532206 7.20133363 -0.2890625 9.6328125 C-0.0621875 10.4784375 0.1646875 11.3240625 0.3984375 12.1953125 C0.3984375 13.5153125 0.3984375 14.8353125 0.3984375 16.1953125 C-0.9215625 15.5353125 -2.2415625 14.8753125 -3.6015625 14.1953125 C-3.9315625 14.8553125 -4.2615625 15.5153125 -4.6015625 16.1953125 C-4.65540771 13.90389964 -4.69428337 11.61213062 -4.7265625 9.3203125 C-4.74976563 8.04414063 -4.77296875 6.76796875 -4.796875 5.453125 C-4.55776838 1.46482664 -4.0832858 0.30655299 0 0 Z " fill="#101010" transform="translate(11.6015625,6.8046875)"/>
<path d="M0 0 C0.598125 0.226875 1.19625 0.45375 1.8125 0.6875 C2.5 2.5 2.5 2.5 2.8125 4.6875 C1.625 6.5 1.625 6.5 -0.1875 7.6875 C-2.375 7.375 -2.375 7.375 -4.1875 6.6875 C-4.875 4.875 -4.875 4.875 -5.1875 2.6875 C-3.58493056 0.24147296 -2.95482043 -0.4221172 0 0 Z " fill="#1F1F1F" transform="translate(17.1875,12.3125)"/>
<path d="M0 0 C0.66 0.33 1.32 0.66 2 1 C1.01 2.485 1.01 2.485 0 4 C-0.24298433 7.33143554 -0.24298433 7.33143554 -0.125 11 C-0.10695313 12.2375 -0.08890625 13.475 -0.0703125 14.75 C-0.04710937 15.8225 -0.02390625 16.895 0 18 C0 18.99 0 19.98 0 21 C-1.4765625 19.93359375 -1.4765625 19.93359375 -3 18 C-3.3984375 14.78515625 -3.3984375 14.78515625 -3.375 11.0625 C-3.38273438 9.83660156 -3.39046875 8.61070313 -3.3984375 7.34765625 C-2.98493739 3.87344457 -2.36790582 2.49945614 0 0 Z " fill="#E2E2E2" transform="translate(8,5)"/>
<path d="M0 0 C1.21236328 0.04060547 1.21236328 0.04060547 2.44921875 0.08203125 C3.06410156 0.11683594 3.67898437 0.15164062 4.3125 0.1875 C4.3125 1.5075 4.3125 2.8275 4.3125 4.1875 C-4.6875 4.1875 -4.6875 4.1875 -7.6875 3.1875 C-5.26849268 0.20484049 -3.789448 -0.16475861 0 0 Z " fill="#060606" transform="translate(15.6875,6.8125)"/>
<path d="M0 0 C2.375 -0.125 2.375 -0.125 5 0 C7 2 7 2 7.125 4.625 C7.08375 5.40875 7.0425 6.1925 7 7 C6.34 7 5.68 7 5 7 C4.731875 6.21625 4.46375 5.4325 4.1875 4.625 C3.15185568 1.71885077 3.15185568 1.71885077 0 0 Z " fill="#E0E0E0" transform="translate(20,6)"/>
</svg>
