<?xml version="1.0" encoding="UTF-8"?>
<svg id="Icons" xmlns="http://www.w3.org/2000/svg" version="1.1" viewBox="0 0 500 500">
  <!-- Generator: Adobe Illustrator 29.0.0, SVG Export Plug-In . SVG Version: 2.1.0 Build 186)  -->
  <g id="Pinterest_white">
    <g id="Icon_x2F_Social_x2F_Light_x2F_Pinterest">
      <g id="Pinterest">
        <path id="_xF0D2_" d="M328.304,243.67c0,41.085-33.288,74.373-74.373,74.373-7.677,0-15.055-1.17-22.012-3.329,3.029-4.948,7.557-13.045,9.237-19.493l4.618-17.694h0c2.429,4.618,9.507,8.547,17.034,8.547,22.432,0,38.596-20.633,38.596-46.274,0-24.561-20.063-42.944-45.853-42.944-32.088,0-49.152,21.532-49.152,45.014,0,10.916,5.818,24.501,15.085,28.819,1.41.66,2.159.36,2.489-.99l2.069-8.427h0c.144-.6.115-1.142-.209-1.703l-.301-.426c-3.029-3.749-5.488-10.586-5.488-16.974,0-16.404,12.416-32.268,33.588-32.268,18.264,0,31.069,12.446,31.069,30.259,0,20.123-10.166,34.068-23.392,34.068-7.287,0-12.775-6.028-11.006-13.435,2.099-8.847,6.148-18.383,6.148-24.771,0-5.698-3.059-10.466-9.417-10.466-7.467,0-13.465,7.707-13.465,18.054,0,6.598,2.219,11.036,2.219,11.036l-8.697,36.947h0c-1.499,6.418-.9,15.475-.27,21.352-27.65-10.826-47.263-37.757-47.263-69.275,0-41.085,33.288-74.373,74.373-74.373s74.373,33.288,74.373,74.373Z"/>
      </g>
    </g>
  </g>
  <text transform="translate(200.713 473.604)" font-family="AvertaPE-Light, &apos;Averta PE&apos;" font-size="25" font-weight="300"><tspan x="0" y="0">Pinterest</tspan></text>
</svg>