<?xml version="1.0" encoding="UTF-8"?>
<svg version="1.1" xmlns="http://www.w3.org/2000/svg" width="32" height="32">
<path d="M0 0 C10.56 0 21.12 0 32 0 C32 10.56 32 21.12 32 32 C21.44 32 10.88 32 0 32 C0 21.44 0 10.88 0 0 Z " fill="#040404" transform="translate(0,0)"/>
<path d="M0 0 C3.11141288 1.6437653 5.28893717 3.03036886 7.375 5.875 C8.23855538 8.81108828 8.36658209 10.94514926 8 14 C5.96006092 17.6578218 4.49580738 19.66946174 1 22 C-1.33199388 22.07905064 -3.66832622 22.08798769 -6 22 C-5.375 19.5625 -5.375 19.5625 -4 17 C-0.9375 16.3125 -0.9375 16.3125 2 16 C3.52150158 12.95699684 3.23899393 10.345915 3 7 C-0.46998729 4.68667514 -1.92509248 4.66042437 -6 5 C-6.99 5.66 -7.98 6.32 -9 7 C-9.73606499 10.56769552 -9.73606499 10.56769552 -10 14 C-9.34 14 -8.68 14 -8 14 C-8.04125 13.05125 -8.0825 12.1025 -8.125 11.125 C-8 8 -8 8 -6 6 C-2.9375 5.8125 -2.9375 5.8125 0 6 C1 7 1 7 1.0625 10.5625 C1.041875 11.696875 1.02125 12.83125 1 14 C-0.32 14.33 -1.64 14.66 -3 15 C-3 12.69 -3 10.38 -3 8 C-3.99 8.495 -3.99 8.495 -5 9 C-5.69093896 11.57951874 -5.69093896 11.57951874 -6.125 14.5625 C-6.29257813 15.57441406 -6.46015625 16.58632813 -6.6328125 17.62890625 C-6.75398437 18.41136719 -6.87515625 19.19382812 -7 20 C-10.78125 19.2734375 -10.78125 19.2734375 -12.75 16.8125 C-14.23084571 13.48059716 -14.51601128 11.61207897 -14 8 C-10.38653728 1.52068754 -7.51547343 -0.76428543 0 0 Z " fill="#F4F4F4" transform="translate(19,5)"/>
<path d="M0 0 C2.375 1.0625 2.375 1.0625 4 3 C4.46913089 7.37855495 4.46943529 9.29584707 2 13 C0.00577205 13.36628677 -1.99453311 13.70131344 -4 14 C-4.33 14.66 -4.66 15.32 -5 16 C-5.66 16 -6.32 16 -7 16 C-6.67 12.37 -6.34 8.74 -6 5 C-5.01 4.67 -4.02 4.34 -3 4 C-3 6.31 -3 8.62 -3 11 C-2.01 10.67 -1.02 10.34 0 10 C0 7.69 0 5.38 0 3 C-1.98 3 -3.96 3 -6 3 C-6.66 5.31 -7.32 7.62 -8 10 C-8.66 10 -9.32 10 -10 10 C-10.48468708 3.57789614 -10.48468708 3.57789614 -8.375 1.0625 C-5.32437685 -0.30225246 -3.31256176 -0.41407022 0 0 Z " fill="#141414" transform="translate(19,9)"/>
<path d="M0 0 C2.9375 0.1875 2.9375 0.1875 3.9375 1.1875 C3.97842937 3.52047433 3.97991723 5.85455225 3.9375 8.1875 C2.6175 8.5175 1.2975 8.8475 -0.0625 9.1875 C-0.0625 6.8775 -0.0625 4.5675 -0.0625 2.1875 C-1.0525 2.6825 -1.0525 2.6825 -2.0625 3.1875 C-2.75343896 5.76701874 -2.75343896 5.76701874 -3.1875 8.75 C-3.35507813 9.76191406 -3.52265625 10.77382813 -3.6953125 11.81640625 C-3.81648437 12.59886719 -3.93765625 13.38132812 -4.0625 14.1875 C-7.84375 13.4609375 -7.84375 13.4609375 -9.8125 11 C-11.22076984 7.83139285 -11.30179224 5.61735545 -11.0625 2.1875 C-10.0725 3.6725 -10.0725 3.6725 -9.0625 5.1875 C-8.4025 4.5275 -7.7425 3.8675 -7.0625 3.1875 C-7.0625 4.8375 -7.0625 6.4875 -7.0625 8.1875 C-6.4025 8.1875 -5.7425 8.1875 -5.0625 8.1875 C-5.10375 7.23875 -5.145 6.29 -5.1875 5.3125 C-5.01660215 1.04005384 -4.26812839 0.26131398 0 0 Z " fill="#E7E7E7" transform="translate(16.0625,10.8125)"/>
<path d="M0 0 C0.99 0.33 1.98 0.66 3 1 C3.6875 3.0625 3.6875 3.0625 4 5 C4.66 4.34 5.32 3.68 6 3 C6.50432107 8.2953712 5.28757779 10.86704506 2 15 C-1.6441774 17.4294516 -3.71241272 17.16179575 -8 17 C-7.375 14.5625 -7.375 14.5625 -6 12 C-2.9375 11.3125 -2.9375 11.3125 0 11 C1.49297212 8.01405576 1.11755228 5.29146376 1 2 C0.67 1.34 0.34 0.68 0 0 Z " fill="#E3E3E3" transform="translate(21,10)"/>
<path d="M0 0 C2.375 1.125 2.375 1.125 4 3 C4.25 6.1875 4.25 6.1875 4 9 C1.2160817 7.60804085 1.02101003 5.84424221 0 3 C-1.98 3 -3.96 3 -6 3 C-6.66 5.31 -7.32 7.62 -8 10 C-8.66 10 -9.32 10 -10 10 C-10.48468708 3.57789614 -10.48468708 3.57789614 -8.375 1.0625 C-5.32437685 -0.30225246 -3.31256176 -0.41407022 0 0 Z " fill="#1C1C1C" transform="translate(19,9)"/>
<path d="M0 0 C0.99 1.485 0.99 1.485 2 3 C2.66 2.34 3.32 1.68 4 1 C4 2.65 4 4.3 4 6 C4.99 5.67 5.98 5.34 7 5 C8.04449911 8.13349732 7.93423645 8.98968256 7 12 C5.1875 11.8125 5.1875 11.8125 3 11 C0.07099943 7.33874929 -0.32215416 4.6175429 0 0 Z " fill="#DBDBDB" transform="translate(5,13)"/>
<path d="M0 0 C1.134375 0.020625 2.26875 0.04125 3.4375 0.0625 C3.4375 0.3925 3.4375 0.7225 3.4375 1.0625 C1.4575 1.3925 -0.5225 1.7225 -2.5625 2.0625 C-2.5625 3.0525 -2.5625 4.0425 -2.5625 5.0625 C-4.375 7.0625 -4.375 7.0625 -6.5625 9.0625 C-7.14 9.64 -7.7175 10.2175 -8.3125 10.8125 C-8.93125 11.43125 -8.93125 11.43125 -9.5625 12.0625 C-9.875 9.375 -9.875 9.375 -9.5625 6.0625 C-7.125 3.25 -7.125 3.25 -4.5625 1.0625 C-3.5625 0.0625 -3.5625 0.0625 0 0 Z " fill="#DFDFDF" transform="translate(15.5625,4.9375)"/>
<path d="M0 0 C6.75 0.75 6.75 0.75 9 3 C9.125 6.125 9.125 6.125 9 9 C7 8 7 8 6.1875 5.5625 C5.21535469 2.76670768 5.21535469 2.76670768 2.375 1.6875 C1.59125 1.460625 0.8075 1.23375 0 1 C0 0.67 0 0.34 0 0 Z " fill="#0E0E0E" transform="translate(14,9)"/>
<path d="M0 0 C1.65 0 3.3 0 5 0 C5 0.99 5 1.98 5 3 C3.35 3.33 1.7 3.66 0 4 C0 2.68 0 1.36 0 0 Z " fill="#EFEFEF" transform="translate(16,23)"/>
<path d="M0 0 C0 1.98 0 3.96 0 6 C-1.32 6.33 -2.64 6.66 -4 7 C-3.625 4.0625 -3.625 4.0625 -3 1 C-1 0 -1 0 0 0 Z " fill="#FAFAFA" transform="translate(20,13)"/>
<path d="M0 0 C1 2 2 4 3 6 C2.01 6.99 1.02 7.98 0 9 C-1.32 8.34 -2.64 7.68 -4 7 C-3.01 6.67 -2.02 6.34 -1 6 C-0.67 4.02 -0.34 2.04 0 0 Z " fill="#444444" transform="translate(20,13)"/>
<path d="M0 0 C0.99 0 1.98 0 3 0 C2.39816251 2.02045442 1.72693904 4.02111039 1 6 C0.01 6.495 0.01 6.495 -1 7 C-1.04254356 5.00045254 -1.04080783 2.99958364 -1 1 C-0.67 0.67 -0.34 0.34 0 0 Z " fill="#FBFBFB" transform="translate(7,10)"/>
</svg>
