<?xml version="1.0" encoding="UTF-8"?>
<svg version="1.1" xmlns="http://www.w3.org/2000/svg" width="32" height="32">
<path d="M0 0 C10.56 0 21.12 0 32 0 C32 10.56 32 21.12 32 32 C21.44 32 10.88 32 0 32 C0 21.44 0 10.88 0 0 Z " fill="#040404" transform="translate(0,0)"/>
<path d="M0 0 C3 0 3 0 4.5625 1.4375 C5.036875 1.953125 5.51125 2.46875 6 3 C6.66 3.33 7.32 3.66 8 4 C8 4.99 8 5.98 8 7 C6.35 7 4.7 7 3 7 C3.03480469 7.60328125 3.06960937 8.2065625 3.10546875 8.828125 C3.22531499 12.36644251 3.29729387 15.23818445 2 18.5625 C-1.32692502 20.95372736 -3.97502788 20.44721912 -8 20 C-10.32749345 16.50875983 -10.50299316 15.10777749 -10 11 C-8.1875 8.625 -8.1875 8.625 -6 7 C-5.01 7 -4.02 7 -3 7 C-3 8.32 -3 9.64 -3 11 C-3.99 11.33 -4.98 11.66 -6 12 C-6 13.32 -6 14.64 -6 16 C-4.35 16.33 -2.7 16.66 -1 17 C-0.67 11.39 -0.34 5.78 0 0 Z " fill="#F3F3F3" transform="translate(17,6)"/>
<path d="M0 0 C0 1.32 0 2.64 0 4 C-0.99 4.33 -1.98 4.66 -3 5 C-3 6.32 -3 7.64 -3 9 C-1.68 9.66 -0.36 10.32 1 11 C-0.98 11.66 -2.96 12.32 -5 13 C-7.32749345 9.50875983 -7.50299316 8.10777749 -7 4 C-4.65790677 0.93105025 -3.92712226 0 0 0 Z " fill="#D3D3D3" transform="translate(14,13)"/>
<path d="M0 0 C1.32 0.33 2.64 0.66 4 1 C3.01 1 2.02 1 1 1 C1.01160156 2.05960937 1.02320313 3.11921875 1.03515625 4.2109375 C1.04453476 5.59895658 1.05363489 6.98697755 1.0625 8.375 C1.07087891 9.07367188 1.07925781 9.77234375 1.08789062 10.4921875 C1.11328125 15.7734375 1.11328125 15.7734375 0 18 C-1.65 18 -3.3 18 -5 18 C-5.33 16.35 -5.66 14.7 -6 13 C-4.35 12.67 -2.7 12.34 -1 12 C-0.67 8.04 -0.34 4.08 0 0 Z " fill="#262626" transform="translate(16,5)"/>
<path d="M0 0 C2.475 0.99 2.475 0.99 5 2 C5 2.99 5 3.98 5 5 C3.35 5 1.7 5 0 5 C0 7.97 0 10.94 0 14 C-0.33 14 -0.66 14 -1 14 C-1.02685938 11.85423363 -1.04633088 9.70837355 -1.0625 7.5625 C-1.07410156 6.36753906 -1.08570312 5.17257812 -1.09765625 3.94140625 C-1 1 -1 1 0 0 Z " fill="#CECECE" transform="translate(20,8)"/>
<path d="M0 0 C0.99 0 1.98 0 3 0 C2.67 2.97 2.34 5.94 2 9 C1.34 8.67 0.68 8.34 0 8 C0 5.36 0 2.72 0 0 Z " fill="#FBFBFB" transform="translate(17,6)"/>
</svg>
