<?xml version="1.0" encoding="UTF-8"?>
<svg version="1.1" xmlns="http://www.w3.org/2000/svg" width="32" height="32">
<path d="M0 0 C10.56 0 21.12 0 32 0 C32 10.56 32 21.12 32 32 C21.44 32 10.88 32 0 32 C0 21.44 0 10.88 0 0 Z " fill="#020202" transform="translate(0,0)"/>
<path d="M0 0 C1.19496094 -0.00386719 1.19496094 -0.00386719 2.4140625 -0.0078125 C3.24679687 -0.00007812 4.07953125 0.00765625 4.9375 0.015625 C5.77023438 0.00789062 6.60296875 0.00015625 7.4609375 -0.0078125 C8.25757813 -0.00523437 9.05421875 -0.00265625 9.875 0 C10.60589844 0.00225586 11.33679688 0.00451172 12.08984375 0.00683594 C13.9375 0.265625 13.9375 0.265625 15.9375 2.265625 C16.19628906 4.11328125 16.19628906 4.11328125 16.203125 6.328125 C16.20699219 7.52308594 16.20699219 7.52308594 16.2109375 8.7421875 C16.20320313 9.57492187 16.19546875 10.40765625 16.1875 11.265625 C16.19523437 12.09835938 16.20296875 12.93109375 16.2109375 13.7890625 C16.20835938 14.58570313 16.20578125 15.38234375 16.203125 16.203125 C16.20086914 16.93402344 16.19861328 17.66492188 16.19628906 18.41796875 C15.9375 20.265625 15.9375 20.265625 13.9375 22.265625 C12.08984375 22.52441406 12.08984375 22.52441406 9.875 22.53125 C8.68003906 22.53511719 8.68003906 22.53511719 7.4609375 22.5390625 C6.62820312 22.53132813 5.79546875 22.52359375 4.9375 22.515625 C4.10476563 22.52335937 3.27203125 22.53109375 2.4140625 22.5390625 C1.61742187 22.53648438 0.82078125 22.53390625 0 22.53125 C-0.73089844 22.52899414 -1.46179688 22.52673828 -2.21484375 22.52441406 C-4.0625 22.265625 -4.0625 22.265625 -6.0625 20.265625 C-6.32128906 18.41796875 -6.32128906 18.41796875 -6.328125 16.203125 C-6.33070313 15.40648437 -6.33328125 14.60984375 -6.3359375 13.7890625 C-6.32820312 12.95632812 -6.32046875 12.12359375 -6.3125 11.265625 C-6.32023438 10.43289063 -6.32796875 9.60015625 -6.3359375 8.7421875 C-6.33335937 7.94554687 -6.33078125 7.14890625 -6.328125 6.328125 C-6.32586914 5.59722656 -6.32361328 4.86632812 -6.32128906 4.11328125 C-5.77263541 0.19610124 -3.39292545 0.01047199 0 0 Z " fill="#EDEDED" transform="translate(11.0625,4.734375)"/>
<path d="M0 0 C0.99 0 1.98 0 3 0 C3.33 0.66 3.66 1.32 4 2 C5.98 2 7.96 2 10 2 C10.309375 3.134375 10.61875 4.26875 10.9375 5.4375 C11.62924531 8.78775099 11.62924531 8.78775099 13 10 C13.1328125 11.8125 13.1328125 11.8125 13.125 14 C13.12886719 15.0828125 13.12886719 15.0828125 13.1328125 16.1875 C13 18 13 18 12 19 C9.66839945 19.09909302 7.33370058 19.12970504 5 19.125 C3.72125 19.12757812 2.4425 19.13015625 1.125 19.1328125 C-2 19 -2 19 -3 18 C-3.14115161 15.32941149 -3.04247107 12.67567762 -3 10 C-1.68 9.34 -0.36 8.68 1 8 C0.67 5.36 0.34 2.72 0 0 Z " fill="#1E1E1E" transform="translate(11,6)"/>
<path d="M0 0 C2.27528469 1.80126705 2.94682181 2.6366157 3.375 5.5625 C3.189375 6.7690625 3.189375 6.7690625 3 8 C2.01 8.66 1.02 9.32 0 10 C-0.47114738 12.7427508 -0.17805784 15.19558897 0 18 C1.87824891 19.87824891 5.03935276 19.39102397 7.5625 19.5625 C8.76003906 19.64628906 9.95757812 19.73007812 11.19140625 19.81640625 C12.58166016 19.90728516 12.58166016 19.90728516 14 20 C14 20.33 14 20.66 14 21 C11.37472811 21.05382106 8.75055287 21.09358313 6.125 21.125 C5.37863281 21.14175781 4.63226563 21.15851562 3.86328125 21.17578125 C1.90805539 21.1933959 -0.04742021 21.10320189 -2 21 C-4.92980811 18.07019189 -4.36810632 14.98155524 -4.375 11.0625 C-4.39949219 10.33353516 -4.42398437 9.60457031 -4.44921875 8.85351562 C-4.4609375 6.72265625 -4.4609375 6.72265625 -4 3 C-1.9765625 0.99609375 -1.9765625 0.99609375 0 0 Z " fill="#F8F8F8" transform="translate(9,6)"/>
<path d="M0 0 C0.99 0 1.98 0 3 0 C3.33 0.66 3.66 1.32 4 2 C5.98 2 7.96 2 10 2 C10.33 4.31 10.66 6.62 11 9 C7.04 9 3.08 9 -1 9 C-0.34 8.67 0.32 8.34 1 8 C0.67 5.36 0.34 2.72 0 0 Z " fill="#818181" transform="translate(11,6)"/>
<path d="M0 0 C2.38564077 0.57584432 4.66682784 1.22227595 7 2 C7.33 1.34 7.66 0.68 8 0 C8 0.66 8 1.32 8 2 C8.66 2 9.32 2 10 2 C10 3.65 10 5.3 10 7 C7.03 7 4.06 7 1 7 C0.67 4.69 0.34 2.38 0 0 Z " fill="#818181" transform="translate(9,16)"/>
<path d="M0 0 C4.62 0 9.24 0 14 0 C14 0.99 14 1.98 14 3 C10.16455058 4.38076179 6.92847503 3.85712183 3 3 C2.01 2.01 1.02 1.02 0 0 Z " fill="#070707" transform="translate(9,15)"/>
<path d="M0 0 C0.33 0 0.66 0 1 0 C1 2.64 1 5.28 1 8 C0.01 8.495 0.01 8.495 -1 9 C-1.66 8.67 -2.32 8.34 -3 8 C-3 6.02 -3 4.04 -3 2 C-2.01 2 -1.02 2 0 2 C0 1.34 0 0.68 0 0 Z " fill="#7A7A7A" transform="translate(23,16)"/>
<path d="M0 0 C0.99 0 1.98 0 3 0 C3.33 0.66 3.66 1.32 4 2 C4.66 2 5.32 2 6 2 C6 3.65 6 5.3 6 7 C4.35 7 2.7 7 1 7 C0.67 4.69 0.34 2.38 0 0 Z " fill="#4F4F4F" transform="translate(11,6)"/>
<path d="M0 0 C2.64 0 5.28 0 8 0 C7.67 0.66 7.34 1.32 7 2 C4.911361 2.67375452 3.19636905 3 1 3 C0.01 3.33 -0.98 3.66 -2 4 C-1.34 2.68 -0.68 1.36 0 0 Z " fill="#E8E8E8" transform="translate(7,5)"/>
<path d="M0 0 C0.33 0.66 0.66 1.32 1 2 C1.66 2 2.32 2 3 2 C3 3.65 3 5.3 3 7 C2.01 7 1.02 7 0 7 C0 4.69 0 2.38 0 0 Z " fill="#A5A5A5" transform="translate(16,16)"/>
</svg>
